<svg
    xmlns="http://www.w3.org/2000/svg"
    viewBox="0 0 512 512"
    width="70"
    height="70"
  >
    <defs>
      <linearGradient id="grad" x1="0" y1="0" x2="0" y2="1">
      <stop offset="0%" stop-color="#4CAF50" />
      <stop offset="100%" stop-color="#FF9800" />
    </linearGradient>
    </defs>
    <path
      fill="url(#grad)"
      d="M256 8C119 8 8 119 8 256s111 248 248 248 
         248-111 248-248S393 8 256 8zm0 448c-110.3 
         0-200-89.7-200-200S145.7 56 256 56s200 
         89.7 200 200-89.7 200-200 200zm6-200V128c0-6.6-5.4-12-12-12h-8c-6.6 
         0-12 5.4-12 12v136c0 4.4 2.4 8.5 6.3 
         10.6l96 56c5.7 3.3 13.1 1.3 16.4-4.4l4-6.9c3.3-5.7 
         1.3-13.1-4.4-16.4l-86.3-50.3z"
    />
  </svg>